<svg width="48" height="48" viewBox="0 0 48 48" fill="none" xmlns="http://www.w3.org/2000/svg">
<path d="M24 7.5C39 7.5 48 24 48 24C48 24 39 40.5 24 40.5C9 40.5 0 24 0 24C0 24 9 7.5 24 7.5ZM24 10.5C13.44 10.5 5.994 20.253 3.525 24C5.991 27.744 13.437 37.5 24 37.5C34.56 37.5 42.006 27.747 44.475 24C42.009 20.256 34.563 10.5 24 10.5ZM24 13.5C26.7848 13.5 29.4555 14.6062 31.4246 16.5754C33.3938 18.5445 34.5 21.2152 34.5 24C34.5 26.7848 33.3938 29.4555 31.4246 31.4246C29.4555 33.3938 26.7848 34.5 24 34.5C21.2152 34.5 18.5445 33.3938 16.5754 31.4246C14.6062 29.4555 13.5 26.7848 13.5 24C13.5 21.2152 14.6062 18.5445 16.5754 16.5754C18.5445 14.6062 21.2152 13.5 24 13.5ZM24 16.5C22.0116 16.5024 20.1053 17.2933 18.6993 18.6993C17.2933 20.1053 16.5024 22.0116 16.5 24C16.5 28.134 19.863 31.5 24 31.5C28.137 31.5 31.5 28.134 31.5 24C31.5 19.866 28.137 16.5 24 16.5Z" fill="#EC7A24"/>
</svg>
