<svg width="465" height="70" viewBox="0 0 465 70" fill="none" xmlns="http://www.w3.org/2000/svg">
<g clip-path="url(#clip0_346_2621)">
<path d="M81.1252 35.4344V18.7212H87.1843C88.4086 18.682 89.5999 19.1208 90.5054 19.9445C90.9479 20.3194 91.3011 20.788 91.5394 21.3163C91.7777 21.8446 91.895 22.4193 91.8828 22.9986C91.9318 23.716 91.7501 24.4304 91.3639 25.0374C90.9778 25.6445 90.4076 26.1125 89.7364 26.3733C90.7186 26.5192 91.6105 27.0272 92.2362 27.7971C92.8619 28.567 93.176 29.543 93.1166 30.5327C93.136 31.1947 93.0151 31.8534 92.7617 32.4655C92.5083 33.0777 92.1281 33.6294 91.6462 34.0845C91.1655 34.5488 90.5959 34.9114 89.9715 35.1506C89.3471 35.3898 88.6808 35.5007 88.0124 35.4766L81.1252 35.4344ZM84.1336 25.4453H86.7787C87.06 25.4654 87.3425 25.4265 87.6079 25.331C87.8733 25.2355 88.1157 25.0855 88.3195 24.8908C88.5233 24.6961 88.684 24.4609 88.7912 24.2004C88.8985 23.9399 88.9498 23.6598 88.942 23.3783C88.9405 23.106 88.8828 22.837 88.7726 22.588C88.6624 22.339 88.502 22.1153 88.3015 21.9309C88.1009 21.7465 87.8644 21.6053 87.6068 21.5161C87.3492 21.4269 87.0759 21.3916 86.804 21.4125H84.159L84.1336 25.4453ZM84.1336 32.7178H87.5139C87.8469 32.7522 88.1834 32.7163 88.5017 32.6126C88.82 32.5089 89.1129 32.3397 89.3615 32.1158C89.6101 31.8919 89.8089 31.6184 89.9449 31.313C90.081 31.0076 90.1513 30.6771 90.1513 30.3428C90.1513 30.0086 90.081 29.6781 89.9449 29.3726C89.8089 29.0672 89.6101 28.7937 89.3615 28.5699C89.1129 28.346 88.82 28.1767 88.5017 28.073C88.1834 27.9693 87.8469 27.9335 87.5139 27.9679H84.1336V32.7178Z" fill="#EC7A24"/>
<path d="M95.5843 18.7217H98.5926V28.7361C98.5926 31.6215 100.012 33.0136 102.387 33.0136C104.762 33.0136 106.164 31.6215 106.164 28.7361V18.7217H109.173V29.0483C109.232 29.9606 109.093 30.8749 108.765 31.7284C108.437 32.5819 107.927 33.3542 107.271 33.9923C105.887 35.1115 104.16 35.7222 102.378 35.7222C100.597 35.7222 98.8699 35.1115 97.4856 33.9923C96.8298 33.3542 96.3202 32.5819 95.992 31.7284C95.6637 30.8749 95.5246 29.9606 95.5843 29.0483V18.7217Z" fill="#EC7A24"/>
<path d="M111.885 30.8278C112.596 31.5446 113.445 32.1112 114.38 32.4939C115.315 32.8766 116.317 33.0674 117.328 33.0551C119.347 33.0551 120.547 32.1186 120.547 30.9965C120.56 30.6796 120.494 30.3644 120.355 30.079C120.216 29.7935 120.01 29.5465 119.753 29.3598C118.834 28.7347 117.84 28.2274 116.795 27.8496C113.914 26.6178 112.35 25.3186 112.35 22.8972C112.327 22.2692 112.459 21.6452 112.735 21.0802C113.01 20.5152 113.421 20.0266 113.93 19.6575C115.103 18.8057 116.529 18.3746 117.978 18.4341C119.42 18.3941 120.839 18.7976 122.043 19.59V22.6357C120.942 21.6635 119.515 21.1396 118.046 21.1677C116.356 21.1677 115.35 21.8679 115.35 22.8972C115.257 23.454 115.764 23.9349 116.195 24.2893C116.582 24.5518 116.992 24.7777 117.42 24.9642L118.215 25.327C118.604 25.4957 118.866 25.5885 118.984 25.6645C120.29 26.1562 121.479 26.9148 122.474 27.8918C123.218 28.7512 123.605 29.8618 123.556 30.9965C123.56 31.6418 123.42 32.2798 123.145 32.8638C122.87 33.4478 122.467 33.9629 121.967 34.3712C120.679 35.3538 119.081 35.8419 117.463 35.7464C115.46 35.7931 113.495 35.2021 111.852 34.0591L111.885 30.8278Z" fill="#EC7A24"/>
<path d="M126.344 35.4349V18.7217H129.353V35.4349H126.344Z" fill="#EC7A24"/>
<path d="M133.172 35.4343V18.0967L144.597 29.2839V18.721H147.606V36.0839L136.181 24.9389V35.4343H133.172Z" fill="#EC7A24"/>
<path d="M151.307 35.4349V18.7217H161.989V21.4383H154.316V25.4205H161.507V28.1371H154.316V32.7436H162.158V35.4349H151.307Z" fill="#EC7A24"/>
<path d="M164.414 30.8278C165.124 31.5454 165.972 32.1126 166.908 32.4953C167.843 32.878 168.845 33.0684 169.856 33.0551C171.876 33.0551 173.084 32.1186 173.084 30.9965C173.096 30.6796 173.03 30.3645 172.892 30.079C172.753 29.7935 172.547 29.5465 172.29 29.3598C171.37 28.7369 170.376 28.2297 169.332 27.8496C166.442 26.6178 164.879 25.3186 164.879 22.8972C164.858 22.2678 164.993 21.6431 165.272 21.0782C165.55 20.5132 165.964 20.0253 166.476 19.6575C167.645 18.8058 169.069 18.3746 170.515 18.4342C171.957 18.393 173.376 18.7966 174.58 19.59V22.6357C173.483 21.6619 172.059 21.1376 170.591 21.1677C168.901 21.1677 167.895 21.8679 167.895 22.8972C167.803 23.454 168.301 23.9349 168.741 24.2893C169.126 24.5535 169.536 24.7796 169.966 24.9642L170.701 25.3101C171.081 25.4789 171.352 25.5717 171.47 25.6476C172.775 26.1424 173.963 26.9006 174.96 27.8749C175.704 28.7343 176.091 29.8449 176.042 30.9797C176.046 31.6249 175.906 32.263 175.631 32.847C175.356 33.431 174.954 33.946 174.453 34.3544C173.174 35.3134 171.596 35.7887 170 35.6958C168 35.7413 166.038 35.1503 164.397 34.0085L164.414 30.8278Z" fill="#EC7A24"/>
<path d="M177.909 30.828C178.622 31.5495 179.474 32.119 180.414 32.5019C181.354 32.8847 182.362 33.073 183.377 33.0553C185.397 33.0553 186.597 32.1188 186.597 30.9968C186.609 30.6798 186.543 30.3647 186.404 30.0792C186.266 29.7938 186.059 29.5468 185.802 29.36C184.885 28.7331 183.891 28.2256 182.845 27.8498C179.963 26.6181 178.4 25.3188 178.4 22.8974C178.378 22.2678 178.512 21.6426 178.791 21.0774C179.069 20.5122 179.484 20.0245 179.997 19.6577C181.166 18.8048 182.59 18.3735 184.036 18.4344C185.478 18.3944 186.897 18.7979 188.101 19.5902V22.6359C187.001 21.6623 185.574 21.1382 184.104 21.1679C182.414 21.1679 181.416 21.8682 181.416 22.8974C181.315 23.4543 181.822 23.9352 182.262 24.2895C182.65 24.5538 183.063 24.7799 183.495 24.9645L184.222 25.3104C184.611 25.4791 184.873 25.5719 184.999 25.6478C186.291 26.1506 187.465 26.9146 188.447 27.892C189.194 28.7497 189.582 29.8615 189.529 30.9968C189.535 31.6423 189.396 32.281 189.121 32.8652C188.846 33.4495 188.442 33.9644 187.94 34.3715C186.664 35.3286 185.089 35.8038 183.495 35.7129C181.496 35.7584 179.533 35.1674 177.893 34.0256L177.909 30.828Z" fill="#EC7A24"/>
<path d="M201.841 35.4349V18.7217H212.514V21.4383H204.841V25.4205H212.033V28.1371H204.841V32.7436H212.683V35.4349H201.841Z" fill="#EC7A24"/>
<path d="M222.249 36.1774L214.221 18.7217H217.424L222.249 29.622L227.134 18.7217H230.328L222.249 36.1774Z" fill="#EC7A24"/>
<path d="M228.292 35.435L236.615 17.9033L244.863 35.435H241.686L240.19 32.1952H232.973L231.469 35.435H228.292ZM234.08 29.622H239.041L236.556 24.1719L234.08 29.622Z" fill="#EC7A24"/>
<path d="M247.196 35.4349V18.7217H250.204V32.7436H256.897V35.4349H247.196Z" fill="#EC7A24"/>
<path d="M258.697 18.7217H261.697V28.7361C261.697 31.6215 263.116 33.0136 265.499 33.0136C267.883 33.0136 269.277 31.6215 269.277 28.7361V18.7217H272.285V29.0483C272.349 29.9581 272.215 30.8709 271.893 31.7242C271.571 32.5776 271.067 33.3512 270.418 33.9923C269.031 35.1107 267.303 35.7208 265.521 35.7208C263.738 35.7208 262.01 35.1107 260.624 33.9923C259.97 33.3528 259.463 32.58 259.136 31.7268C258.809 30.8735 258.671 29.9599 258.731 29.0483L258.697 18.7217Z" fill="#EC7A24"/>
<path d="M273.342 35.4349L281.64 17.8779L289.913 35.4349H286.71L285.223 32.1952H278.023L276.519 35.4349H273.342ZM279.139 29.5966H284.091L281.615 24.1465L279.139 29.5966Z" fill="#EC7A24"/>
<path d="M293.327 35.4349V21.4383H288.781V18.7217H300.882V21.4383H296.336V35.4349H293.327Z" fill="#EC7A24"/>
<path d="M303.307 35.4349V18.7217H306.316V35.4349H303.307Z" fill="#EC7A24"/>
<path d="M311.825 33.2996C310.996 32.5026 310.342 31.5418 309.906 30.4785C309.469 29.4151 309.26 28.2726 309.29 27.1239C309.259 25.9763 309.469 24.835 309.905 23.7729C310.342 22.7109 310.996 21.7516 311.825 20.9566C313.511 19.3372 315.76 18.4326 318.1 18.4326C320.439 18.4326 322.688 19.3372 324.374 20.9566C325.218 21.7444 325.885 22.7008 326.334 23.7634C326.782 24.826 327.001 25.971 326.977 27.1239C327.001 28.2755 326.784 29.4194 326.34 30.4827C325.896 31.546 325.235 32.5053 324.4 33.2996C322.7 34.9034 320.451 35.797 318.112 35.797C315.774 35.797 313.524 34.9034 311.825 33.2996ZM313.887 31.376C315.011 32.4696 316.518 33.0816 318.087 33.0816C319.656 33.0816 321.163 32.4696 322.287 31.376C323.382 30.2303 323.993 28.7075 323.993 27.1239C323.993 25.5402 323.382 24.0174 322.287 22.8717C321.169 21.7681 319.66 21.1492 318.087 21.1492C316.515 21.1492 315.006 21.7681 313.887 22.8717C313.34 23.4286 312.91 24.0881 312.62 24.8122C312.329 25.5362 312.186 26.3104 312.197 27.0901C312.17 27.882 312.306 28.6709 312.597 29.4082C312.887 30.1454 313.327 30.8152 313.887 31.376Z" fill="#EC7A24"/>
<path d="M329.766 35.4343V18.0967L341.191 29.2839V18.721H344.191V36.0839L332.766 24.9389V35.4343H329.766Z" fill="#EC7A24"/>
<path d="M356.816 30.8278C357.527 31.5446 358.375 32.1112 359.31 32.4939C360.245 32.8766 361.248 33.0674 362.258 33.0551C364.278 33.0551 365.478 32.1186 365.478 30.9965C365.49 30.6796 365.424 30.3644 365.286 30.079C365.147 29.7935 364.94 29.5465 364.683 29.3598C363.765 28.7347 362.771 28.2274 361.726 27.8496C358.844 26.6178 357.281 25.3186 357.281 22.8972C357.258 22.2692 357.39 21.6452 357.665 21.0802C357.941 20.5152 358.352 20.0266 358.861 19.6575C360.034 18.8057 361.46 18.3746 362.909 18.4341C364.35 18.3941 365.769 18.7976 366.974 19.59V22.6357C365.873 21.6635 364.446 21.1396 362.976 21.1677C361.286 21.1677 360.281 21.8679 360.281 22.8972C360.188 23.454 360.695 23.9349 361.126 24.2893C361.512 24.5518 361.923 24.7777 362.351 24.9642L363.145 25.327C363.534 25.4957 363.796 25.5885 363.914 25.6645C365.22 26.1562 366.409 26.9148 367.405 27.8918C368.133 28.7575 368.505 29.8674 368.444 30.9965C368.448 31.6418 368.308 32.2798 368.033 32.8638C367.758 33.4478 367.356 33.9629 366.855 34.3712C365.579 35.3283 364.004 35.8035 362.41 35.7127C360.408 35.7594 358.443 35.1684 356.799 34.0253L356.816 30.8278Z" fill="#EC7A24"/>
<path d="M371.182 35.4349V18.7217H381.855V21.4383H374.182V25.4205H381.373V28.1371H374.182V32.7436H382.024V35.4349H371.182Z" fill="#EC7A24"/>
<path d="M385.083 35.4347V18.7214H391.598C392.316 18.6987 393.031 18.8224 393.7 19.0849C394.368 19.3475 394.976 19.7434 395.486 20.2485C396.003 20.7288 396.412 21.3134 396.686 21.9636C396.96 22.6138 397.092 23.3146 397.074 24.0197C397.097 25.0257 396.819 26.0157 396.276 26.8633C395.732 27.7108 394.948 28.3775 394.024 28.778L398.021 35.4347H394.641L391.066 29.5289H388.083V35.4347H385.083ZM388.083 26.787H391.26C391.626 26.8061 391.992 26.7487 392.334 26.6185C392.676 26.4882 392.988 26.288 393.248 26.0306C393.508 25.7732 393.711 25.4644 393.845 25.1239C393.979 24.7834 394.039 24.4188 394.024 24.0534C394.039 23.712 393.984 23.371 393.863 23.0511C393.742 22.7313 393.558 22.4392 393.321 22.1924C393.084 21.9456 392.8 21.7493 392.485 21.6153C392.17 21.4813 391.831 21.4124 391.489 21.4127H388.049L388.083 26.787Z" fill="#EC7A24"/>
<path d="M406.218 36.1774L398.165 18.7217H401.401L406.26 29.622L411.145 18.7217H414.347L406.218 36.1774Z" fill="#EC7A24"/>
<path d="M416.756 35.4349V18.7217H419.764V35.4349H416.756Z" fill="#EC7A24"/>
<path d="M436.809 20.1888V23.3779C436.141 22.6667 435.333 22.1016 434.436 21.7182C433.538 21.3348 432.571 21.1415 431.595 21.1506C430.813 21.1333 430.036 21.2742 429.311 21.5649C428.585 21.8556 427.926 22.2899 427.374 22.8418C426.821 23.3937 426.386 24.0517 426.094 24.776C425.803 25.5003 425.662 26.276 425.679 27.0563C425.657 27.8379 425.795 28.6157 426.085 29.3423C426.374 30.0688 426.809 30.7287 427.363 31.2816C427.916 31.8344 428.577 32.2686 429.305 32.5576C430.033 32.8466 430.812 32.9842 431.595 32.9621C432.571 32.9711 433.538 32.7778 434.436 32.3944C435.333 32.011 436.141 31.4459 436.809 30.7347V33.9238C435.341 35.1203 433.488 35.744 431.595 35.6787C429.244 35.7282 426.97 34.8489 425.265 33.232C424.435 32.4309 423.78 31.4657 423.344 30.3981C422.907 29.3304 422.698 28.1837 422.73 27.031C422.698 25.8795 422.907 24.7341 423.344 23.6679C423.78 22.6016 424.435 21.6379 425.265 20.8384C426.105 20.0294 427.096 19.3944 428.182 18.9701C429.269 18.5458 430.429 18.3407 431.595 18.3664C433.496 18.3285 435.347 18.9754 436.809 20.1888Z" fill="#EC7A24"/>
<path d="M440.181 35.4349V18.7217H450.862V21.4383H443.189V25.4205H450.414V28.1371H443.223V32.7436H451.057V35.4349H440.181Z" fill="#EC7A24"/>
<path d="M453.288 30.8277C453.996 31.545 454.843 32.1121 455.777 32.4948C456.711 32.8776 457.712 33.0681 458.721 33.055C460.741 33.055 461.941 32.1185 461.941 30.9964C461.954 30.6803 461.888 30.3659 461.751 30.0806C461.615 29.7954 461.41 29.5479 461.155 29.3597C460.234 28.732 459.237 28.2219 458.189 27.841C455.307 26.6093 453.744 25.31 453.744 22.8887C453.721 22.2598 453.854 21.6351 454.131 21.0699C454.408 20.5047 454.821 20.0166 455.333 19.6489C456.501 18.796 457.926 18.3647 459.372 18.4256C460.814 18.3856 462.233 18.7891 463.437 19.5814V22.6271C462.336 21.6536 460.909 21.1294 459.44 21.1591C457.749 21.1591 456.752 21.8594 456.752 22.8887C456.651 23.4455 457.158 23.9264 457.597 24.2807C457.986 24.5451 458.399 24.7711 458.831 24.9557L459.625 25.3184C460.006 25.4872 460.268 25.58 460.394 25.6559C461.697 26.1495 462.883 26.908 463.876 27.8832C464.623 28.7409 465.01 29.8527 464.958 30.988C464.964 31.6326 464.825 32.2705 464.552 32.8545C464.278 33.4386 463.877 33.9539 463.378 34.3627C462.089 35.3503 460.487 35.8414 458.865 35.7463C456.865 35.7918 454.903 35.2008 453.262 34.059L453.288 30.8277Z" fill="#EC7A24"/>
<path d="M39.5402 47.2123L42.3627 45.584L45.1936 43.9557L48.0161 42.3274L53.6611 39.0708L56.4836 37.4425L59.3145 35.8142L62.137 34.1859V53.7255L59.3145 55.3538L56.4836 56.9821L53.6611 58.6104L48.0161 61.867L45.1936 63.4869L39.5402 66.7519L36.7177 68.3718L33.8953 70.0001V63.4869L36.7177 61.867L42.3627 58.6104L45.1936 56.9821L48.0161 55.3538L50.8386 53.7255L53.6611 52.0972L56.4836 50.4689V43.9557L53.6611 45.584L50.8386 47.2123L48.0161 48.8406L42.3627 52.0972L39.5402 53.7255L36.7177 55.3538L33.8953 56.9821V37.4425L36.7177 35.8142L39.5402 34.1859L42.3627 32.5661L48.0161 29.301L50.8386 27.6812L53.6611 26.0529L56.4836 24.4161L59.3145 22.7963L62.137 21.168V27.6812L59.3145 29.301L53.6611 32.5661L50.8386 34.1859L48.0161 35.8142L45.1936 37.4425L42.3627 39.0708L39.5402 40.6991V47.2123Z" fill="#8B3249"/>
<path d="M28.2417 37.4425L25.4193 35.8142L22.5968 34.1859L19.7743 32.5661L14.1209 29.301L11.2984 27.6812L8.45055 26.0529L5.64497 24.4161L2.82248 22.7794L0 21.168V53.7255L2.82248 55.3538L5.64497 56.9821L8.45055 58.602L14.0955 61.867L16.918 63.4869L22.5714 66.7519L25.4193 68.338L28.2417 70.0254V50.4689L25.4193 48.8406L28.2417 47.2461V37.4425ZM22.5968 43.9557L19.7743 45.5587L16.9434 43.9557L14.1209 42.3274L8.45055 39.0708V45.5587L11.2984 47.2461L14.1209 48.8744L19.7743 52.131L22.5968 53.7593V60.2387L19.7743 58.602L16.9434 56.9821L14.1209 55.3538L11.2984 53.7255L8.45055 52.0972L5.64497 50.4689V30.9293L8.45055 32.5661L11.273 34.1859L14.0955 35.8142L16.918 37.4425L19.7489 39.0708L22.5714 40.6991L22.5968 43.9557Z" fill="#A9C838"/>
<path d="M59.3144 16.283L56.4835 17.9113L53.661 19.5396L50.8385 21.1679L48.0161 22.7962L45.1936 24.4161L42.3626 26.0528L39.5402 27.6811L36.7177 29.301L31.0727 32.566L25.4193 29.301L22.5968 27.6811L19.7743 26.0528L16.9434 24.4161L14.1209 22.7962L11.2984 21.1679L8.47593 19.5396L5.64499 17.9113L2.82251 16.283L5.64499 14.6547L8.47593 13.0264L11.2984 11.3981L14.1209 9.7698L16.9434 8.1415L22.5968 4.8849L25.4193 3.2566L28.2418 1.6283L31.0727 0L33.8952 1.6283L36.7177 3.2566L33.8952 4.8849L28.2418 8.1415L25.4193 9.7698L22.5968 11.3981L19.7743 13.0264L16.9434 14.6547L14.1209 16.283L16.9434 17.9113L19.7743 19.5396L22.5968 17.9113L28.2418 14.6547L31.0727 13.0264L33.8952 11.3981L36.7177 9.7698L39.5402 8.1415L42.3626 6.5132L45.1936 8.1415L48.0161 9.7698L45.1936 11.3981L42.3626 13.0264L39.5402 14.6547L33.8952 17.9113L31.0727 19.5396L28.2418 21.1679L25.4193 22.7962L28.2418 24.4161L31.0727 26.0528L33.8952 24.4161L36.7177 22.7962L39.5402 21.1679L42.3626 19.5396L45.1936 17.9113L50.8385 14.6547L53.661 13.0264L56.4835 14.6547L59.3144 16.283Z" fill="#EC7A24"/>
<path d="M81.1252 52.0043V44.833H82.2238L84.759 48.8489L87.2941 44.833H88.3843V52.0043H87.1674V47.1447L84.7252 50.9328L82.2661 47.1531V52.0043H81.1252Z" fill="#676E75"/>
<path d="M91.7815 51.0759C91.4312 50.7299 91.1531 50.318 90.9633 49.864C90.7735 49.41 90.6758 48.9229 90.6758 48.4309C90.6758 47.939 90.7735 47.4519 90.9633 46.9979C91.1531 46.5439 91.4312 46.132 91.7815 45.786C92.5039 45.0931 93.4669 44.7061 94.4687 44.7061C95.4706 44.7061 96.4336 45.0931 97.156 45.786C97.5182 46.1243 97.8048 46.5352 97.997 46.9917C98.1892 47.4482 98.2828 47.9401 98.2715 48.4352C98.2811 48.9272 98.1885 49.4159 97.9994 49.8705C97.8103 50.325 97.5289 50.7354 97.1729 51.0759C96.4447 51.7642 95.48 52.1478 94.4772 52.1478C93.4744 52.1478 92.5097 51.7642 91.7815 51.0759ZM92.6265 50.2322C92.862 50.4682 93.1419 50.6554 93.4501 50.7831C93.7582 50.9109 94.0886 50.9766 94.4223 50.9766C94.7559 50.9766 95.0863 50.9109 95.3945 50.7831C95.7026 50.6554 95.9825 50.4682 96.218 50.2322C96.6904 49.7445 96.9545 49.0925 96.9545 48.4141C96.9545 47.7356 96.6904 47.0837 96.218 46.5959C95.9825 46.36 95.7026 46.1728 95.3945 46.045C95.0863 45.9173 94.7559 45.8515 94.4223 45.8515C94.0886 45.8515 93.7582 45.9173 93.4501 46.045C93.1419 46.1728 92.862 46.36 92.6265 46.5959C92.3868 46.8338 92.1987 47.1183 92.0736 47.4318C91.9486 47.7453 91.8894 48.081 91.8998 48.4183C91.8922 48.7602 91.9567 49.0999 92.0892 49.4154C92.2217 49.7308 92.4191 50.0148 92.6688 50.2491L92.6265 50.2322Z" fill="#676E75"/>
<path d="M100.494 52.0043V44.833H101.626L105.429 49.8107V44.833H106.68V52.0043H105.632L101.753 46.9422V52.0043H100.494Z" fill="#676E75"/>
<path d="M109.333 52.0043V44.833H110.618V52.0043H109.333Z" fill="#676E75"/>
<path d="M114.649 52.0043V45.9973H112.705V44.833H117.885V45.9973H115.933V52.0043H114.649Z" fill="#676E75"/>
<path d="M120.353 51.0767C120.004 50.7295 119.728 50.3172 119.54 49.8634C119.351 49.4096 119.254 48.9231 119.254 48.4317C119.254 47.9404 119.351 47.4539 119.54 47.0001C119.728 46.5462 120.004 46.1339 120.353 45.7868C121.077 45.0933 122.041 44.7061 123.044 44.7061C124.047 44.7061 125.012 45.0933 125.736 45.7868C126.085 46.1334 126.362 46.5455 126.551 46.9994C126.74 47.4533 126.838 47.9401 126.838 48.4317C126.838 48.9234 126.74 49.4102 126.551 49.8641C126.362 50.318 126.085 50.7301 125.736 51.0767C125.008 51.765 124.043 52.1486 123.04 52.1486C122.037 52.1486 121.073 51.765 120.344 51.0767H120.353ZM121.24 50.233C121.476 50.4702 121.756 50.6585 122.065 50.787C122.374 50.9155 122.705 50.9817 123.04 50.9817C123.375 50.9817 123.706 50.9155 124.015 50.787C124.324 50.6585 124.604 50.4702 124.84 50.233C125.307 49.7423 125.567 49.0915 125.567 48.4149C125.567 47.7382 125.307 47.0874 124.84 46.5967C124.604 46.3595 124.324 46.1712 124.015 46.0427C123.706 45.9142 123.375 45.8481 123.04 45.8481C122.705 45.8481 122.374 45.9142 122.065 46.0427C121.756 46.1712 121.476 46.3595 121.24 46.5967C121.005 46.8376 120.821 47.1229 120.697 47.4357C120.574 47.7486 120.514 48.0829 120.522 48.4191C120.509 48.7571 120.566 49.0941 120.69 49.4091C120.814 49.7241 121.001 50.0103 121.24 50.2499V50.233Z" fill="#676E75"/>
<path d="M129.065 52.0046V44.8333H131.829C132.141 44.8193 132.452 44.8705 132.743 44.9839C133.034 45.0972 133.298 45.2701 133.519 45.4914C133.74 45.6962 133.915 45.946 134.032 46.224C134.148 46.5019 134.204 46.8016 134.195 47.1028C134.204 47.5335 134.086 47.9574 133.854 48.3209C133.623 48.6843 133.288 48.971 132.893 49.1445L134.634 52.0046H133.181L131.643 49.4736H130.367V52.0046H129.065ZM130.358 48.3009H131.727C131.884 48.308 132.04 48.2826 132.186 48.2263C132.332 48.17 132.465 48.084 132.576 47.9738C132.688 47.8635 132.775 47.7315 132.832 47.5859C132.89 47.4404 132.916 47.2845 132.91 47.1281C132.918 46.9818 132.896 46.8354 132.845 46.698C132.795 46.5605 132.716 46.4349 132.615 46.3289C132.513 46.223 132.391 46.1389 132.256 46.0819C132.121 46.0249 131.975 45.9962 131.829 45.9976H130.358V48.3009Z" fill="#676E75"/>
<path d="M136.688 52.0043V44.833H137.981V52.0043H136.688Z" fill="#676E75"/>
<path d="M140.651 52.0043V44.833H141.783L145.586 49.8107V44.833H146.828V52.0043H145.78L141.893 46.9422V52.0043H140.651Z" fill="#676E75"/>
<path d="M155.541 45.7868L154.696 46.5714C154.21 46.1079 153.559 45.856 152.887 45.8711C152.552 45.8643 152.22 45.925 151.909 46.0498C151.598 46.1745 151.316 46.3607 151.079 46.5971C150.842 46.8335 150.656 47.1153 150.531 47.4255C150.406 47.7357 150.345 48.0679 150.352 48.4022C150.345 48.8939 150.481 49.3771 150.745 49.7928C151.008 50.2084 151.387 50.5384 151.835 50.7424C152.283 50.9465 152.781 51.0157 153.268 50.9417C153.755 50.8677 154.21 50.6537 154.577 50.3258V49.0265H152.583V47.8875H155.794V50.7814C155.447 51.1767 155.024 51.4987 154.55 51.7282C154.076 51.9577 153.56 52.0901 153.034 52.1176C152.508 52.1451 151.982 52.0672 151.486 51.8884C150.991 51.7096 150.536 51.4336 150.149 51.0766C149.799 50.7292 149.52 50.3159 149.33 49.8605C149.14 49.4051 149.042 48.9166 149.042 48.4233C149.042 47.9299 149.14 47.4415 149.33 46.9861C149.52 46.5307 149.799 46.1173 150.149 45.7699C150.511 45.4221 150.939 45.1497 151.408 44.9686C151.877 44.7876 152.377 44.7014 152.879 44.7153C153.372 44.7031 153.863 44.7919 154.321 44.9762C154.779 45.1604 155.194 45.4363 155.541 45.7868Z" fill="#676E75"/>
<path d="M157.746 50.8574H159.073L157.78 53.321H156.825L157.746 50.8574Z" fill="#676E75"/>
<path d="M166.476 52.0043V44.833H167.574L170.152 48.8489L172.687 44.833H173.786V52.0043H172.569V47.1447L170.126 50.9328L167.667 47.1531V52.0043H166.476Z" fill="#676E75"/>
<path d="M176.439 52.0043V44.833H181.019V45.9973H177.732V47.6846H180.842V48.8489H177.766V50.8231H181.146V51.9874L176.439 52.0043Z" fill="#676E75"/>
<path d="M182.819 52.0043L185.819 44.833H186.909L189.909 52.0043H188.549L187.957 50.57H184.763L184.18 52.0043H182.819ZM185.169 49.4732H187.602L186.402 46.5457L185.169 49.4732Z" fill="#676E75"/>
<path d="M192.149 49.8785C192.305 50.2217 192.561 50.51 192.883 50.7057C193.206 50.9014 193.58 50.9953 193.957 50.9753C194.853 50.9753 195.165 50.5028 195.165 50.0388C195.173 49.8908 195.139 49.7436 195.068 49.6139C194.996 49.4842 194.889 49.3771 194.76 49.3048C194.432 49.093 194.077 48.9283 193.703 48.8155C193.182 48.655 192.691 48.4099 192.25 48.0899C192.053 47.9134 191.895 47.6975 191.787 47.4562C191.68 47.2149 191.624 46.9536 191.624 46.6894C191.624 46.4251 191.68 46.1638 191.787 45.9225C191.895 45.6812 192.053 45.4653 192.25 45.2889C192.696 44.9211 193.261 44.7291 193.839 44.7489C194.274 44.7248 194.708 44.8158 195.097 45.0129C195.486 45.2099 195.815 45.5059 196.053 45.871L195.132 46.4953C194.995 46.2857 194.804 46.1165 194.58 46.0052C194.356 45.8939 194.106 45.8447 193.856 45.8626C193.289 45.8626 192.875 46.1832 192.875 46.6219C192.876 46.7409 192.904 46.8581 192.956 46.9648C193.009 47.0715 193.085 47.1649 193.18 47.2378C193.351 47.3423 193.528 47.4353 193.712 47.5162L194.084 47.6596L194.506 47.8283C195.052 48.0195 195.55 48.3244 195.968 48.7226C196.284 49.0729 196.449 49.5341 196.425 50.005C196.425 51.2706 195.58 52.1227 193.889 52.1227C193.318 52.161 192.749 52.025 192.257 51.7327C191.765 51.4403 191.373 51.0055 191.135 50.4859L192.149 49.8785Z" fill="#676E75"/>
<path d="M198.588 44.833H199.881V49.1189C199.881 50.3591 200.489 50.9497 201.503 50.9497C202.517 50.9497 203.126 50.3591 203.126 49.1189V44.833H204.41V49.2539C204.432 49.6469 204.367 50.0398 204.221 50.4055C204.075 50.7711 203.851 51.1007 203.565 51.3715C202.971 51.8611 202.224 52.1289 201.453 52.1289C200.682 52.1289 199.935 51.8611 199.34 51.3715C199.053 51.1018 198.828 50.7723 198.682 50.4064C198.536 50.0405 198.472 49.6471 198.495 49.2539L198.588 44.833Z" fill="#676E75"/>
<path d="M206.929 52.0041V44.8328H209.726C210.031 44.8246 210.334 44.8788 210.618 44.9919C210.901 45.1051 211.158 45.2749 211.374 45.4909C211.595 45.6957 211.77 45.9455 211.887 46.2235C212.003 46.5014 212.059 46.8011 212.05 47.1023C212.06 47.533 211.941 47.9569 211.709 48.3204C211.478 48.6838 211.143 48.9705 210.748 49.144L212.489 52.0041H211.036L209.498 49.4731H208.222V52.0041H206.929ZM208.222 48.3004H209.574C209.73 48.3075 209.887 48.2821 210.033 48.2258C210.179 48.1695 210.312 48.0835 210.423 47.9733C210.534 47.863 210.621 47.731 210.679 47.5854C210.736 47.4399 210.763 47.284 210.757 47.1276C210.765 46.9813 210.743 46.8349 210.692 46.6975C210.641 46.56 210.563 46.4344 210.461 46.3284C210.36 46.2225 210.238 46.1384 210.103 46.0814C209.967 46.0244 209.822 45.9957 209.675 45.9971H208.222V48.3004Z" fill="#676E75"/>
<path d="M214.551 52.0043V44.833H215.844V52.0043H214.551Z" fill="#676E75"/>
<path d="M218.514 52.0043V44.833H219.647L223.45 49.8107V44.833H224.692V52.0043H223.644L219.757 46.9422V52.0043H218.514Z" fill="#676E75"/>
<path d="M233.404 45.7866L232.559 46.5712C232.318 46.3407 232.033 46.1601 231.721 46.04C231.409 45.9198 231.076 45.8623 230.742 45.871C230.407 45.8626 230.073 45.9234 229.761 46.0497C229.45 46.176 229.169 46.365 228.934 46.605C228.57 46.9555 228.319 47.4069 228.213 47.901C228.108 48.3951 228.154 48.9093 228.343 49.3775C228.533 49.8457 228.859 50.2464 229.279 50.5282C229.699 50.8099 230.194 50.9597 230.7 50.9583C231.32 50.9662 231.921 50.7471 232.39 50.3425V49.0263H230.396V47.8873H233.607V50.7812C233.26 51.1765 232.836 51.4985 232.362 51.728C231.888 51.9575 231.373 52.0899 230.847 52.1174C230.321 52.1449 229.795 52.067 229.299 51.8882C228.804 51.7094 228.349 51.4334 227.962 51.0765C227.611 50.729 227.333 50.3157 227.143 49.8603C226.953 49.4049 226.855 48.9164 226.855 48.4231C226.855 47.9298 226.953 47.4413 227.143 46.9859C227.333 46.5305 227.611 46.1172 227.962 45.7697C228.325 45.4205 228.754 45.1472 229.224 44.9661C229.695 44.785 230.196 44.6997 230.7 44.7151C231.2 44.6976 231.699 44.7837 232.165 44.9681C232.63 45.1526 233.052 45.4312 233.404 45.7866Z" fill="#676E75"/>
<path d="M242.26 47.5078C242.115 47.235 242.04 46.9307 242.041 46.6219C242.033 46.3613 242.08 46.1021 242.179 45.8608C242.278 45.6196 242.427 45.4018 242.615 45.2214C243.04 44.8468 243.595 44.653 244.162 44.6815C244.668 44.6601 245.164 44.8321 245.548 45.1624C245.721 45.3063 245.859 45.4871 245.952 45.6915C246.046 45.896 246.093 46.1188 246.088 46.3435C246.101 46.6039 246.01 46.8587 245.835 47.0522H248.37V48.1827H247.043V48.6046C247.059 49.3084 246.881 50.0031 246.528 50.6125L247.855 52.0046H246.257L245.742 51.4646C245.131 51.9623 244.357 52.2149 243.57 52.1733C242.845 52.2065 242.135 51.962 241.584 51.4899C241.336 51.2701 241.139 50.9978 241.009 50.6928C240.879 50.3879 240.819 50.0578 240.832 49.7267C240.814 49.2553 240.941 48.7898 241.197 48.3929C241.452 47.9961 241.823 47.6871 242.26 47.5078ZM243.57 51.0259C243.796 51.0465 244.024 51.0154 244.236 50.935C244.449 50.8546 244.64 50.727 244.795 50.5619C244.145 49.8701 243.612 49.3133 243.452 49.153L243.224 48.9167C243.107 48.793 242.999 48.6604 242.903 48.5202C242.653 48.6028 242.437 48.7627 242.285 48.9767C242.133 49.1907 242.053 49.4475 242.057 49.7098C242.052 49.9011 242.09 50.0912 242.167 50.2664C242.244 50.4416 242.359 50.5977 242.503 50.7235C242.648 50.8492 242.818 50.9415 243.003 50.9938C243.187 51.0461 243.381 51.0571 243.57 51.0259ZM245.615 49.7267C245.795 49.3329 245.876 48.9015 245.852 48.4696V48.1827H244.407V47.4234C244.518 47.4057 244.624 47.3663 244.72 47.3075C244.816 47.2488 244.899 47.1717 244.965 47.0809C245.031 46.99 245.078 46.887 245.104 46.7779C245.13 46.6687 245.134 46.5555 245.117 46.4447C245.099 46.334 245.059 46.2277 245.001 46.1322C244.942 46.0366 244.864 45.9535 244.773 45.8877C244.682 45.8219 244.579 45.7746 244.47 45.7486C244.361 45.7226 244.247 45.7183 244.136 45.7361C244.013 45.7279 243.889 45.7468 243.774 45.7916C243.659 45.8364 243.555 45.9059 243.469 45.9952C243.384 46.0845 243.319 46.1915 243.279 46.3085C243.24 46.4256 243.227 46.5498 243.241 46.6725C243.305 47.1773 243.555 47.6402 243.942 47.9718L245.615 49.7267Z" fill="#676E75"/>
<path d="M255.283 52.0043V44.833H256.39L258.925 48.8489L261.46 44.833H262.55V52.0043H261.333V47.1447L258.891 50.9328L256.432 47.1531V52.0043H255.283Z" fill="#676E75"/>
<path d="M264.688 52.0043L267.688 44.833H268.778L271.778 52.0043H270.418L269.826 50.57H266.632L266.049 52.0043H264.688ZM267.037 49.4732H269.429L268.229 46.5457L267.037 49.4732Z" fill="#676E75"/>
<path d="M273.798 52.0043V44.833H274.939L278.733 49.8107V44.833H279.984V52.0043H278.936L275.049 46.9422V52.0043H273.798Z" fill="#676E75"/>
<path d="M282.079 52.0043L285.071 44.833H286.169L289.161 52.0043H287.8L287.217 50.57H284.023L283.44 52.0043H282.079ZM284.429 49.4732H286.812L285.629 46.5879L284.429 49.4732Z" fill="#676E75"/>
<path d="M296.893 45.7866L296.048 46.5712C295.562 46.1077 294.912 45.8558 294.24 45.8709C293.835 45.881 293.439 45.9877 293.084 46.182C292.729 46.3763 292.426 46.6526 292.2 46.9878C291.974 47.323 291.832 47.7073 291.785 48.1087C291.738 48.51 291.788 48.9167 291.931 49.2948C292.074 49.6728 292.305 50.0112 292.606 50.2817C292.907 50.5521 293.268 50.7467 293.659 50.8493C294.051 50.9519 294.461 50.9594 294.856 50.8712C295.251 50.783 295.619 50.6017 295.93 50.3424V49.0263H293.935V47.8873H297.147V50.7811C296.799 51.1765 296.376 51.4985 295.902 51.728C295.428 51.9574 294.913 52.0899 294.387 52.1174C293.86 52.1449 293.334 52.067 292.839 51.8882C292.343 51.7094 291.889 51.4334 291.502 51.0764C290.797 50.3725 290.402 49.4181 290.402 48.4231C290.402 47.428 290.797 46.4737 291.502 45.7697C291.863 45.4229 292.289 45.1511 292.756 44.97C293.223 44.789 293.722 44.7024 294.223 44.7151C294.717 44.7037 295.209 44.7928 295.668 44.977C296.127 45.1612 296.544 45.4366 296.893 45.7866Z" fill="#676E75"/>
<path d="M299.547 52.0043V44.833H300.84V52.0043H299.547Z" fill="#676E75"/>
<path d="M303.501 52.0048V44.8336H304.634L308.445 49.7775V44.7998H309.687V51.9711H308.639L304.752 46.909V51.9711L303.501 52.0048Z" fill="#676E75"/>
<path d="M318.4 45.786L317.555 46.5707C317.313 46.3401 317.028 46.1596 316.716 46.0394C316.404 45.9192 316.072 45.8618 315.738 45.8704C315.065 45.8704 314.421 46.1371 313.945 46.6117C313.47 47.0864 313.203 47.7302 313.203 48.4014C313.203 49.0727 313.47 49.7165 313.945 50.1912C314.421 50.6658 315.065 50.9325 315.738 50.9325C316.358 50.9404 316.959 50.7213 317.428 50.3166V49.0258H315.425V47.8868H318.636V50.7806C318.289 51.176 317.866 51.4979 317.392 51.7274C316.918 51.9569 316.402 52.0893 315.876 52.1169C315.35 52.1444 314.824 52.0664 314.328 51.8877C313.833 51.7089 313.378 51.4329 312.991 51.0759C312.287 50.3719 311.891 49.4176 311.891 48.4225C311.891 47.4275 312.287 46.4731 312.991 45.7692C313.355 45.4203 313.784 45.1473 314.254 44.9662C314.724 44.7851 315.226 44.6996 315.729 44.7146C316.224 44.7032 316.716 44.7923 317.175 44.9765C317.634 45.1607 318.051 45.4361 318.4 45.786Z" fill="#676E75"/>
<path d="M327.594 52.0043V45.9973H325.65V44.833H330.831V45.9973H328.887V52.0043H327.594Z" fill="#676E75"/>
<path d="M332.859 52.0043V44.833H334.143V47.6256H337.599V44.833H338.867V52.0043H337.599V48.7899H334.143V52.0043H332.859Z" fill="#676E75"/>
<path d="M341.504 52.0043V44.833H346.075V45.9973H342.788V47.6846H345.873V48.8489H342.788V50.8231H346.168V51.9874L341.504 52.0043Z" fill="#676E75"/>
<path d="M359.807 45.786L358.962 46.5707C358.721 46.3401 358.436 46.1596 358.124 46.0394C357.812 45.9192 357.48 45.8618 357.146 45.8704C356.473 45.8704 355.828 46.1371 355.353 46.6117C354.877 47.0864 354.61 47.7302 354.61 48.4014C354.61 49.0727 354.877 49.7165 355.353 50.1912C355.828 50.6658 356.473 50.9325 357.146 50.9325C357.765 50.9404 358.367 50.7213 358.836 50.3166V49.0258H356.833V47.8868H360.053V50.7806C359.704 51.1763 359.28 51.4984 358.806 51.728C358.331 51.9576 357.815 52.09 357.288 52.1175C356.761 52.145 356.234 52.0671 355.738 51.8882C355.242 51.7093 354.787 51.4331 354.399 51.0759C353.695 50.3719 353.299 49.4176 353.299 48.4225C353.299 47.4275 353.695 46.4731 354.399 45.7692C354.762 45.4203 355.191 45.1473 355.662 44.9662C356.132 44.7851 356.633 44.6996 357.137 44.7146C357.632 44.7027 358.124 44.7916 358.583 44.9758C359.042 45.16 359.459 45.4357 359.807 45.786Z" fill="#676E75"/>
<path d="M362.36 44.833H363.644V49.1189C363.644 50.3591 364.253 50.9497 365.275 50.9497C366.298 50.9497 366.889 50.3591 366.889 49.1189V44.833H368.182V49.2539C368.203 49.6469 368.139 50.0398 367.993 50.4055C367.847 50.7711 367.623 51.1007 367.337 51.3715C366.741 51.8581 365.994 52.1239 365.224 52.1239C364.454 52.1239 363.708 51.8581 363.112 51.3715C362.826 51.1007 362.602 50.7711 362.456 50.4055C362.31 50.0398 362.245 49.6469 362.267 49.2539L362.36 44.833Z" fill="#676E75"/>
<path d="M370.743 52.0043V44.833H375.323V45.9973H372.036V47.6846H375.112V48.8489H372.036V50.8231H375.416V51.9874L370.743 52.0043Z" fill="#676E75"/>
<path d="M378.162 49.8783C378.317 50.2209 378.571 50.5089 378.892 50.7046C379.213 50.9003 379.586 50.9946 379.962 50.9751C380.858 50.9751 381.179 50.5027 381.179 50.0386C381.187 49.8897 381.152 49.7415 381.079 49.6115C381.006 49.4815 380.897 49.375 380.765 49.3046C380.441 49.0927 380.088 48.9279 379.717 48.8153C379.193 48.6419 378.702 48.3824 378.264 48.0476C378.058 47.8774 377.895 47.661 377.79 47.4161C377.684 47.1712 377.638 46.9048 377.655 46.6386C377.649 46.373 377.703 46.1094 377.814 45.8681C377.926 45.6268 378.091 45.4141 378.297 45.2465C378.741 44.8801 379.303 44.688 379.878 44.7066C380.317 44.6914 380.754 44.7907 381.143 44.9949C381.533 45.199 381.863 45.5009 382.1 45.8709L381.179 46.4952C381.041 46.2868 380.85 46.1185 380.626 46.0074C380.402 45.8963 380.153 45.8463 379.903 45.8624C379.337 45.8624 378.923 46.183 378.923 46.6217C378.926 46.7393 378.954 46.8548 379.005 46.9609C379.056 47.067 379.129 47.1612 379.219 47.2376C379.393 47.3405 379.574 47.4334 379.759 47.516L380.131 47.6595L380.554 47.8282C381.097 48.0234 381.595 48.3278 382.016 48.7225C382.326 49.0759 382.486 49.5357 382.464 50.0049C382.464 51.2704 381.618 52.1225 379.928 52.1225C379.356 52.1603 378.786 52.0241 378.293 51.7319C377.799 51.4398 377.406 51.0053 377.165 50.4858L378.162 49.8783Z" fill="#676E75"/>
<path d="M385.785 52.0043V45.9973H383.833V44.833H389.021V45.9973H387.035V52.0043H385.785Z" fill="#676E75"/>
<path d="M395.528 52.0043V44.833H400.1V45.9973H396.813V47.6846H399.897V48.8489H396.813V50.8231H400.193V51.9874L395.528 52.0043Z" fill="#676E75"/>
<path d="M401.934 52.0043L404.317 48.309L402.06 44.833H403.488L405.119 47.364L406.734 44.833H408.162L405.922 48.3174L408.322 52.0043H406.894L405.111 49.2539L403.336 52.0043H401.934Z" fill="#676E75"/>
<path d="M410.384 52.0043V44.8331H413.122C413.73 44.8292 414.315 45.0623 414.753 45.4827C414.981 45.7008 415.162 45.9628 415.286 46.2528C415.41 46.5427 415.474 46.8548 415.474 47.17C415.474 47.4853 415.41 47.7974 415.286 48.0873C415.162 48.3773 414.981 48.6393 414.753 48.8574C414.318 49.2832 413.731 49.5198 413.122 49.5155H411.669V52.0465L410.384 52.0043ZM411.669 48.3259H413.063C413.372 48.3259 413.669 48.2032 413.887 47.9849C414.106 47.7665 414.229 47.4704 414.229 47.1616C414.229 46.8528 414.106 46.5567 413.887 46.3383C413.669 46.12 413.372 45.9973 413.063 45.9973H411.669V48.3259Z" fill="#676E75"/>
<path d="M417.643 52.0043V44.833H422.215V45.9973H418.928V47.6846H422.012V48.8489H418.928V50.8231H422.308V51.9874L417.643 52.0043Z" fill="#676E75"/>
<path d="M424.623 52.0041V44.8328H427.42C427.726 44.8246 428.029 44.8788 428.312 44.9919C428.596 45.1051 428.853 45.2749 429.068 45.4909C429.29 45.6957 429.465 45.9455 429.581 46.2235C429.698 46.5014 429.753 46.8011 429.744 47.1023C429.754 47.533 429.636 47.9569 429.404 48.3204C429.172 48.6838 428.838 48.9705 428.443 49.144L430.184 52.0041H428.73L427.192 49.4731H425.908V52.0041H424.623ZM425.908 48.3004H427.277C427.433 48.3075 427.59 48.2821 427.736 48.2258C427.882 48.1695 428.015 48.0835 428.126 47.9733C428.237 47.863 428.324 47.731 428.382 47.5854C428.439 47.4399 428.466 47.284 428.46 47.1276C428.468 46.9813 428.446 46.8349 428.395 46.6975C428.344 46.56 428.266 46.4344 428.164 46.3284C428.063 46.2225 427.941 46.1384 427.806 46.0814C427.67 46.0244 427.525 45.9957 427.378 45.9971H425.908V48.3004Z" fill="#676E75"/>
<path d="M432.246 52.0043V44.833H433.513V52.0043H432.246Z" fill="#676E75"/>
<path d="M436.209 52.0043V44.833H440.781V45.9973H437.493V47.6846H440.569V48.8489H437.493V50.8231H440.874V51.9874L436.209 52.0043Z" fill="#676E75"/>
<path d="M443.189 52.0043V44.833H444.322L448.124 49.8107V44.833H449.375V52.0043H448.319L444.44 46.9422V52.0043H443.189Z" fill="#676E75"/>
<path d="M458.257 45.9973L457.412 46.7482C457.176 46.4845 456.89 46.271 456.57 46.1204C456.25 45.9698 455.903 45.8853 455.549 45.8719C455.196 45.8586 454.843 45.9166 454.513 46.0425C454.182 46.1684 453.88 46.3596 453.626 46.6047C453.165 47.0983 452.908 47.748 452.908 48.4229C452.908 49.0977 453.165 49.7474 453.626 50.241C453.885 50.4834 454.19 50.6715 454.523 50.7942C454.856 50.9168 455.21 50.9715 455.565 50.955C455.919 50.9384 456.267 50.8511 456.587 50.698C456.907 50.5449 457.193 50.3293 457.428 50.0638L458.273 50.8147C457.922 51.2276 457.484 51.5587 456.99 51.7846C456.497 52.0105 455.96 52.1258 455.417 52.1224C454.41 52.1462 453.434 51.77 452.705 51.0762C452 50.3723 451.604 49.4179 451.604 48.4229C451.604 47.4278 452 46.4735 452.705 45.7695C453.065 45.4237 453.49 45.1525 453.955 44.9715C454.421 44.7905 454.918 44.7033 455.417 44.7149C455.956 44.7032 456.491 44.8124 456.983 45.0343C457.474 45.2562 457.909 45.5853 458.257 45.9973Z" fill="#676E75"/>
<path d="M460.352 52.0043V44.833H464.924V45.9973H461.637V47.6846H464.721V48.8489H461.637V50.8231H465.017V51.9874L460.352 52.0043Z" fill="#676E75"/>
</g>
<defs>
<clipPath id="clip0_346_2621">
<rect width="465" height="70" fill="white"/>
</clipPath>
</defs>
</svg>
