<svg width="63" height="70" viewBox="0 0 63 70" fill="none" xmlns="http://www.w3.org/2000/svg">
<path d="M39.5402 47.2123L42.3627 45.584L45.1936 43.9557L48.0161 42.3274L53.6611 39.0708L56.4836 37.4425L59.3145 35.8142L62.137 34.1859V53.7255L59.3145 55.3538L56.4836 56.9821L53.6611 58.6104L48.0161 61.867L45.1936 63.4869L39.5402 66.7519L36.7177 68.3718L33.8953 70.0001V63.4869L36.7177 61.867L42.3627 58.6104L45.1936 56.9821L48.0161 55.3538L50.8386 53.7255L53.6611 52.0972L56.4836 50.4689V43.9557L53.6611 45.584L50.8386 47.2123L48.0161 48.8406L42.3627 52.0972L39.5402 53.7255L36.7177 55.3538L33.8953 56.9821V37.4425L36.7177 35.8142L39.5402 34.1859L42.3627 32.5661L48.0161 29.301L50.8386 27.6812L53.6611 26.0529L56.4836 24.4161L59.3145 22.7963L62.137 21.168V27.6812L59.3145 29.301L53.6611 32.5661L50.8386 34.1859L48.0161 35.8142L45.1936 37.4425L42.3627 39.0708L39.5402 40.6991V47.2123Z" fill="#8B3249"/>
<path d="M28.2417 37.4425L25.4193 35.8142L22.5968 34.1859L19.7743 32.5661L14.1209 29.301L11.2984 27.6812L8.45055 26.0529L5.64497 24.4161L2.82248 22.7794L0 21.168V53.7255L2.82248 55.3538L5.64497 56.9821L8.45055 58.602L14.0955 61.867L16.918 63.4869L22.5714 66.7519L25.4193 68.338L28.2417 70.0254V50.4689L25.4193 48.8406L28.2417 47.2461V37.4425ZM22.5968 43.9557L19.7743 45.5587L16.9434 43.9557L14.1209 42.3274L8.45055 39.0708V45.5587L11.2984 47.2461L14.1209 48.8744L19.7743 52.131L22.5968 53.7593V60.2387L19.7743 58.602L16.9434 56.9821L14.1209 55.3538L11.2984 53.7255L8.45055 52.0972L5.64497 50.4689V30.9293L8.45055 32.5661L11.273 34.1859L14.0955 35.8142L16.918 37.4425L19.7489 39.0708L22.5714 40.6991L22.5968 43.9557Z" fill="#A9C838"/>
<path d="M59.3144 16.283L56.4835 17.9113L53.661 19.5396L50.8385 21.1679L48.0161 22.7962L45.1936 24.4161L42.3626 26.0528L39.5402 27.6811L36.7177 29.301L31.0727 32.566L25.4193 29.301L22.5968 27.6811L19.7743 26.0528L16.9434 24.4161L14.1209 22.7962L11.2984 21.1679L8.47593 19.5396L5.64499 17.9113L2.82251 16.283L5.64499 14.6547L8.47593 13.0264L11.2984 11.3981L14.1209 9.7698L16.9434 8.1415L22.5968 4.8849L25.4193 3.2566L28.2418 1.6283L31.0727 0L33.8952 1.6283L36.7177 3.2566L33.8952 4.8849L28.2418 8.1415L25.4193 9.7698L22.5968 11.3981L19.7743 13.0264L16.9434 14.6547L14.1209 16.283L16.9434 17.9113L19.7743 19.5396L22.5968 17.9113L28.2418 14.6547L31.0727 13.0264L33.8952 11.3981L36.7177 9.7698L39.5402 8.1415L42.3626 6.5132L45.1936 8.1415L48.0161 9.7698L45.1936 11.3981L42.3626 13.0264L39.5402 14.6547L33.8952 17.9113L31.0727 19.5396L28.2418 21.1679L25.4193 22.7962L28.2418 24.4161L31.0727 26.0528L33.8952 24.4161L36.7177 22.7962L39.5402 21.1679L42.3626 19.5396L45.1936 17.9113L50.8385 14.6547L53.661 13.0264L56.4835 14.6547L59.3144 16.283Z" fill="#EC7A24"/>
</svg>
