<svg width="48" height="48" viewBox="0 0 48 48" fill="none" xmlns="http://www.w3.org/2000/svg">
<path d="M24.9154 47.9815C25.0455 47.9767 25.1755 47.9715 25.3053 47.9646C25.4147 47.9588 25.5238 47.9518 25.6329 47.9446C25.7334 47.9379 25.8338 47.9306 25.9342 47.9227C26.0604 47.9128 26.1864 47.9022 26.3121 47.8904C26.3855 47.8835 26.4585 47.8756 26.5317 47.8679C27.2339 47.795 27.9291 47.6919 28.617 47.5583C28.6659 47.5487 28.7149 47.5396 28.7638 47.5299C28.9046 47.5017 29.045 47.4717 29.1852 47.4409C29.2613 47.4243 29.3373 47.4071 29.4132 47.3897C29.5337 47.362 29.6543 47.3337 29.7743 47.3041C29.8919 47.2752 30.009 47.2446 30.1261 47.2138C30.2067 47.1927 30.2876 47.1724 30.3679 47.1503C34.3396 46.0646 37.98 43.9617 40.97 40.9719C41.301 40.6409 41.6198 40.3012 41.9289 39.9548C41.942 39.94 41.9548 39.9253 41.9678 39.9107C42.106 39.7551 42.2419 39.598 42.3756 39.4394C42.3866 39.4263 42.3976 39.4133 42.4086 39.4001C46.0277 35.089 48 29.6968 48 24.0003C48 18.3022 46.0266 12.9088 42.4058 8.59703C42.3967 8.58628 42.3876 8.57553 42.3786 8.56478C42.2425 8.40333 42.1043 8.24351 41.9636 8.0852C41.9529 8.07303 41.9421 8.06076 41.9313 8.04859C41.6213 7.70115 41.3018 7.36031 40.9699 7.02849C37.9794 4.03844 34.3385 1.93535 30.3663 0.849734C30.2882 0.828235 30.2094 0.808561 30.1311 0.787873C30.0118 0.756536 29.8924 0.725403 29.7725 0.695892C29.6539 0.666584 29.5348 0.638797 29.4158 0.611415C29.3381 0.593567 29.2605 0.576022 29.1826 0.558985C29.0437 0.52846 28.9046 0.498847 28.765 0.470858C28.7147 0.460716 28.6642 0.451387 28.6137 0.44155C28.0726 0.336588 27.5271 0.249272 26.9772 0.181832C26.9751 0.181629 26.973 0.181325 26.971 0.181021C26.8253 0.163172 26.679 0.147859 26.5328 0.132647C26.459 0.12494 26.3854 0.11703 26.3114 0.109931C26.1859 0.0980657 26.0602 0.0875188 25.9342 0.0776818C25.8337 0.0696702 25.7331 0.0624699 25.6324 0.0557767C25.5234 0.0485765 25.4144 0.0415789 25.305 0.0357984C25.1752 0.0289024 25.0451 0.0237304 24.9149 0.0188626C24.8296 0.0157188 24.7445 0.0117638 24.6591 0.00953275C24.4394 0.00365083 24.2195 0 23.9989 0C23.7784 0 23.5583 0.00365083 23.3387 0.00953275C23.2535 0.0117638 23.1687 0.0157188 23.0837 0.0188626C22.9531 0.0237304 22.8226 0.0289024 22.6924 0.0357984C22.5837 0.0415789 22.4752 0.0484751 22.3667 0.0556754C22.265 0.06247 22.1635 0.0697717 22.0622 0.0778847C21.9373 0.0877217 21.8126 0.0981672 21.6882 0.10983C21.6124 0.11703 21.5368 0.125143 21.4613 0.133053C21.317 0.148062 21.1727 0.163172 21.0291 0.180717C21.0209 0.181731 21.0128 0.182948 21.0046 0.183962C20.464 0.25059 19.9278 0.336385 19.3957 0.43942C19.3398 0.45017 19.2836 0.460716 19.2278 0.471872C19.0928 0.49905 18.9581 0.527649 18.8236 0.55716C18.7399 0.575414 18.6564 0.594276 18.573 0.613545C18.4593 0.639709 18.3458 0.666279 18.2327 0.694168C18.1035 0.72591 17.9748 0.759376 17.8463 0.793248C17.7769 0.811603 17.7073 0.829046 17.638 0.84801C13.6637 1.93312 10.0207 4.03672 7.02908 7.02838C6.69689 7.36061 6.37696 7.70176 6.06675 8.04961C6.05672 8.06086 6.04679 8.07222 6.03676 8.08348C5.89432 8.24381 5.75431 8.40577 5.61664 8.56924C5.61005 8.57716 5.60336 8.58496 5.59668 8.59287C1.9743 12.9051 0 18.3002 0 24C0 29.7022 1.97582 35.0992 5.60103 39.4123C5.60448 39.4165 5.60803 39.4206 5.61157 39.4248C5.75269 39.5924 5.89625 39.7585 6.04233 39.9229C6.04922 39.9307 6.05621 39.9385 6.0632 39.9463C6.37452 40.2956 6.69557 40.6381 7.02908 40.9716C10.0207 43.9632 13.6636 46.0669 17.638 47.1519C17.7071 47.171 17.7766 47.1882 17.8459 47.2066C17.9746 47.2404 18.1034 47.274 18.2328 47.3058C18.3457 47.3336 18.4591 47.3601 18.5726 47.3864C18.6563 47.4055 18.7401 47.4245 18.824 47.4428C18.9581 47.4724 19.0926 47.5009 19.2273 47.528C19.2836 47.5393 19.3403 47.5499 19.3967 47.5608C19.927 47.6634 20.4616 47.7489 21.0004 47.8154C21.0101 47.8167 21.0199 47.8181 21.0297 47.8194C21.1728 47.8368 21.3165 47.8518 21.4601 47.8668C21.5363 47.8748 21.6125 47.883 21.6888 47.8902C21.8129 47.9018 21.9373 47.9124 22.0618 47.9221C22.1635 47.9301 22.2654 47.9374 22.3674 47.9443C22.4756 47.9514 22.5838 47.9584 22.6923 47.9641C22.8227 47.971 22.9535 47.9763 23.0844 47.9811C23.1692 47.9843 23.2538 47.9881 23.3388 47.9905C23.5584 47.9965 23.7785 48 23.999 48C23.9992 48 23.9993 48 23.9995 48C24.2199 48 24.4396 47.9963 24.659 47.9905C24.7447 47.9885 24.83 47.9846 24.9154 47.9815ZM1.43068 24.7101H12.8365C12.8722 27.4199 13.112 30.0539 13.5404 32.5243C13.4117 32.5668 13.2826 32.6084 13.1548 32.6527C10.2035 33.6715 7.55983 35.1219 5.45454 36.8679C3.03824 33.3962 1.57068 29.2178 1.43068 24.7101ZM5.45454 11.1326C7.55983 12.8788 10.2034 14.3291 13.1547 15.348C13.2826 15.3922 13.4117 15.4338 13.5404 15.4763C13.1119 17.9466 12.8722 20.5806 12.8365 23.2903H1.43068C1.57068 18.7828 3.03824 14.6044 5.45454 11.1326ZM19.6329 1.8452C18.2597 3.07188 17.0117 4.8897 15.9564 7.23973C15.0532 9.25104 14.3325 11.5573 13.8115 14.0583C10.9276 13.087 8.35125 11.7083 6.30097 9.99318C9.57759 5.86194 14.2674 2.9006 19.6329 1.8452ZM46.5695 23.2904H35.1597C35.1239 20.5811 34.8841 17.9475 34.4558 15.4774C34.5854 15.4346 34.7154 15.3925 34.8443 15.3481C37.7951 14.3293 40.4391 12.8789 42.5453 11.1325C44.9618 14.6042 46.4295 18.7827 46.5695 23.2904ZM42.5452 36.868C40.4391 35.1216 37.7951 33.6713 34.8443 32.6527C34.7154 32.6082 34.5854 32.5661 34.4557 32.5234C34.8841 30.0533 35.1239 27.4196 35.1596 24.7102H46.5694C46.4295 29.2178 44.9619 33.3962 42.5452 36.868ZM17.2501 40.1787C16.3717 38.2227 15.6733 35.97 15.1715 33.5208C17.7215 32.7979 20.4729 32.3831 23.2899 32.3234V46.5159C21.07 46.1156 18.9014 43.8562 17.2501 40.1787ZM24.7082 24.7101H33.7413C33.7066 27.2764 33.4841 29.768 33.0887 32.1065C30.4294 31.3633 27.621 30.9587 24.7082 30.9024V24.7101ZM24.7082 23.2904V17.0983C27.621 17.042 30.4294 16.6374 33.0887 15.8941C33.4841 18.2326 33.7067 20.7241 33.7413 23.2904H24.7082ZM24.7082 15.6773V1.48468C26.9266 1.88515 29.0943 4.14462 30.7457 7.82194C31.6242 9.77828 32.3227 12.0313 32.8246 14.4805C30.2749 15.203 27.5243 15.6176 24.7082 15.6773ZM23.2899 15.6773C20.4728 15.6176 17.7215 15.2027 15.1714 14.4798C15.6731 12.0307 16.3716 9.77778 17.25 7.82184C18.9014 4.14422 21.0699 1.88485 23.2899 1.48447V15.6773ZM23.2899 17.0983V23.2904H14.2549C14.2895 20.7238 14.512 18.2319 14.9073 15.8933C17.5675 16.6371 20.3766 17.042 23.2899 17.0983ZM23.2899 24.7101V30.9025C20.3766 30.9588 17.5675 31.3637 14.9074 32.1075C14.512 29.7687 14.2895 27.2768 14.2549 24.7102H23.2899V24.7101ZM24.7082 32.3234C27.5243 32.3831 30.2749 32.7977 32.8245 33.5202C32.3227 35.9694 31.6241 38.2223 30.7456 40.1787C29.0942 43.856 26.9266 46.1154 24.7081 46.5158V32.3234H24.7082ZM32.0393 40.7609C32.9426 38.7492 33.6634 36.4428 34.1846 33.9417C37.0696 34.9131 39.6472 36.292 41.6988 38.0075C38.4212 42.1395 33.7301 45.1009 28.3628 46.156C29.7359 44.9292 30.9838 43.1111 32.0393 40.7609ZM41.6987 9.99307C39.6472 11.7087 37.0696 13.0876 34.1846 14.0589C33.6634 11.5579 32.9426 9.25145 32.0393 7.23973C30.9838 4.88939 29.7359 3.07127 28.3628 1.84459C33.73 2.89958 38.4212 5.86113 41.6987 9.99307ZM13.8115 33.9423C14.3326 36.4432 15.0532 38.7494 15.9564 40.7608C17.0117 43.1108 18.2596 44.9286 19.6328 46.1553C14.2674 45.0998 9.57769 42.1386 6.30097 38.0073C8.35115 36.2923 10.9275 34.9136 13.8115 33.9423Z" fill="#EC7A24"/>
</svg>
