<svg width="48" height="34" viewBox="0 0 48 34" fill="none" xmlns="http://www.w3.org/2000/svg">
<path d="M24 0.5C39 0.5 48 17 48 17C48 17 39 33.5 24 33.5C9 33.5 0 17 0 17C0 17 9 0.5 24 0.5ZM24 3.5C13.44 3.5 5.994 13.253 3.525 17C5.991 20.744 13.437 30.5 24 30.5C34.56 30.5 42.006 20.747 44.475 17C42.009 13.256 34.563 3.5 24 3.5V3.5ZM24 6.5C26.7848 6.5 29.4555 7.60625 31.4246 9.57538C33.3938 11.5445 34.5 14.2152 34.5 17C34.5 19.7848 33.3938 22.4555 31.4246 24.4246C29.4555 26.3938 26.7848 27.5 24 27.5C21.2152 27.5 18.5445 26.3938 16.5754 24.4246C14.6062 22.4555 13.5 19.7848 13.5 17C13.5 14.2152 14.6062 11.5445 16.5754 9.57538C18.5445 7.60625 21.2152 6.5 24 6.5V6.5ZM24 9.5C22.0116 9.50238 20.1053 10.2933 18.6993 11.6993C17.2933 13.1053 16.5024 15.0116 16.5 17C16.5 21.134 19.863 24.5 24 24.5C28.137 24.5 31.5 21.134 31.5 17C31.5 12.866 28.137 9.5 24 9.5Z" fill="#EC7A24"/>
</svg>
