<svg width="41" height="37" viewBox="0 0 41 37" fill="none" xmlns="http://www.w3.org/2000/svg">
<path d="M27.998 0.859375C23.0274 0.859375 18.998 4.88937 18.998 9.85937C18.998 14.8294 23.0274 18.8594 27.998 18.8594C32.9686 18.8594 36.998 14.8294 36.998 9.85937C36.998 4.88937 32.9686 0.859375 27.998 0.859375ZM12.998 2.85937C8.57984 2.85937 4.99805 6.44137 4.99805 10.8594C4.99805 15.2774 8.57984 18.8594 12.998 18.8594C14.6568 18.8594 16.228 18.3534 17.5604 17.4214C18.4658 16.7894 18.6932 15.5154 18.0604 14.6094C17.4276 13.7034 16.2158 13.5394 15.3104 14.1714C14.6446 14.6374 13.8304 14.8594 12.998 14.8594C10.7888 14.8594 8.99804 13.0694 8.99804 10.8594C8.99804 8.64937 10.7888 6.85937 12.998 6.85937C13.6504 6.85937 14.2472 7.00336 14.8104 7.29736C15.7904 7.80736 17.0508 7.4634 17.5604 6.4834C18.0702 5.5054 17.6654 4.24335 16.6856 3.73535C15.5554 3.14735 14.2968 2.85937 12.998 2.85937ZM27.998 4.85937C30.7594 4.85937 32.998 7.09737 32.998 9.85937C32.998 12.6214 30.7594 14.8594 27.998 14.8594C25.2366 14.8594 22.998 12.6214 22.998 9.85937C22.998 7.09737 25.2366 4.85937 27.998 4.85937ZM7.12304 21.5474C3.45485 23.0614 0.998047 26.7714 0.998047 30.8594V34.8594C0.998047 35.9634 1.89345 36.8594 2.99805 36.8594H10.998C12.1026 36.8594 12.998 35.9634 12.998 34.8594C12.998 33.7554 12.1026 32.8594 10.998 32.8594H4.99805V30.8594C4.99805 28.6114 6.33144 26.5474 7.86404 25.6394C9.30544 26.2474 10.8302 26.7074 12.1862 26.8214C13.287 26.9154 14.2796 26.0854 14.373 24.9834C14.4664 23.8834 13.671 22.9514 12.5704 22.8574C11.6924 22.7834 10.7328 22.5194 9.62304 22.0474C9.35504 21.9334 9.19944 21.8434 8.68564 21.6094C8.18184 21.3794 7.63464 21.3354 7.12304 21.5474ZM21.123 21.5474C17.4548 23.0614 14.998 26.7714 14.998 30.8594V34.8594C14.998 35.9634 15.8934 36.8594 16.998 36.8594H38.998C40.1026 36.8594 40.998 35.9634 40.998 34.8594V30.8594C40.998 26.8674 38.5276 23.2474 34.873 21.6714C34.3586 21.4494 33.7592 21.4434 33.248 21.6714C31.4784 22.4654 29.7544 22.8594 27.998 22.8594C26.2476 22.8594 24.5176 22.4434 22.6856 21.6094C22.1818 21.3794 21.6346 21.3354 21.123 21.5474ZM21.892 25.6394C23.7816 26.3554 26.0598 26.8594 27.998 26.8594C29.921 26.8594 32.105 26.3893 33.9564 25.7053C35.7616 26.7333 36.998 28.6574 36.998 30.8594V32.8594H18.998V30.8594C18.998 28.5294 20.3098 26.5654 21.892 25.6394Z" fill="#EC7A24"/>
</svg>
