<svg width="361" height="100" viewBox="0 0 361 100" fill="none" xmlns="http://www.w3.org/2000/svg">
<g clip-path="url(#clip0_174_189)">
<path fill-rule="evenodd" clip-rule="evenodd" d="M90.6282 62.507H98.96C102.211 62.507 103.447 63.6288 103.447 66.3762C103.447 69.0218 102.21 70.1423 98.96 70.1423H90.6282V62.507ZM77.7206 90.2962H90.6288V78.9962H104.455C113.609 78.9962 116.905 73.6038 116.905 66.632C116.905 58.539 113.516 53.9595 104.362 53.9595H77.7206V90.2962ZM121.162 53.9595H155.903V62.8128H134.07V67.6987H154.349V76.5557H134.07V81.441H155.903V90.2962H121.162V53.9595ZM174.214 62.507H182.545C185.795 62.507 187.032 63.6288 187.032 66.3762C187.032 69.0218 185.795 70.1423 182.545 70.1423H174.214V62.507ZM161.306 90.2962H174.214V78.9962H188.038C197.194 78.9962 200.491 73.6038 200.491 66.632C200.491 58.539 197.102 53.9595 187.946 53.9595H161.306V90.2962ZM212.985 74.8756C206.669 73.8052 204.062 69.734 204.062 64.6461C204.062 55.2294 212.347 52.687 222.964 52.687C237.519 52.687 243.517 56.9095 243.975 64.5954H228.96C228.96 63.1192 228.182 62.2013 226.994 61.6929C225.849 61.1345 224.385 60.9313 222.964 60.9313C219.12 60.9313 217.793 61.9987 217.793 63.5268C217.793 64.5429 218.204 65.207 219.485 65.4096L234.911 67.9532C241.412 69.0218 245.441 72.3808 245.441 78.5373C245.441 87.3956 238.94 91.5687 224.429 91.5687C214.496 91.5687 203.647 90.0424 203.602 79.3545H219.165C219.209 80.5744 219.623 81.3885 220.54 81.9488C221.498 82.4584 222.918 82.7135 224.932 82.7135C228.959 82.7135 230.059 81.4911 230.059 79.7603C230.059 78.6917 229.463 77.6237 227.727 77.3198L212.985 74.8756ZM249.65 53.9595H262.558V90.2962H249.65V53.9595ZM310.396 76.1481C309.572 80.9321 308.105 84.8 304.9 87.4456C301.744 90.0924 296.798 91.5687 288.927 91.5687C281.1 91.5687 266.589 90.9565 266.589 72.1288C266.589 53.2973 281.1 52.6864 288.927 52.6864C296.707 52.6864 308.701 53.805 310.396 68.2095H295.839C295.473 65.6115 293.914 61.8461 288.927 61.8461C283.66 61.8461 280.319 64.7468 280.319 72.1282C280.319 79.5077 283.57 82.4065 288.285 82.4065C292.36 82.4065 294.786 80.5238 295.839 76.1474H310.396V76.1481ZM327.285 72.1294C327.285 64.7474 330.628 61.8473 335.893 61.8473C341.156 61.8473 344.499 64.748 344.499 72.1294C344.499 79.5089 341.156 82.4077 335.893 82.4077C330.628 82.4071 327.285 79.5083 327.285 72.1294ZM313.552 72.1294C313.552 90.9565 328.062 91.5693 335.892 91.5693C343.72 91.5693 358.231 90.9571 358.231 72.1294C358.231 53.2979 343.72 52.687 335.892 52.687C328.062 52.687 313.552 53.2973 313.552 72.1294ZM58.2156 54.3196C59.0491 36.8863 44.015 17.2538 23.519 14.8271L23.554 14.5889C43.7598 14.5889 59.2499 33.2947 59.2499 48.0518C59.2305 51.1238 58.9879 53.0272 58.5552 54.409L58.2156 54.3196ZM56.9914 56.5356C55.647 58.1782 53.9563 59.8321 51.9754 61.4021C48.3313 40.4435 32.93 22.1166 22.0415 16.7673L21.8082 16.9299C32.7587 25.917 45.8195 43.3716 50.8986 62.2244C48.3079 64.1275 45.5094 65.7302 42.5568 67.0015C32.2235 55.2175 22.5898 32.4912 19.4853 18.0698L19.1696 18.1648C19.2396 32.1635 29.1784 55.9278 41.2988 67.5236C38.5189 68.6237 35.629 69.4221 32.6787 69.9053C21.0604 65.3026 12.7905 50.5611 12.7905 35.46C12.7905 25.6019 15.7962 19.5035 16.3777 18.2555L16.1301 18.1573C15.4266 19.2215 11.0234 25.3168 11.0234 35.9596C11.0234 53.0291 19.4415 66.0761 30.6178 70.1848C26.6211 70.6244 22.5803 70.4347 18.6424 69.6227L18.5593 69.8828C19.7548 70.323 23.811 72.0256 29.9987 72.0256C43.9943 72.0256 53.4554 63.3299 57.264 56.7201L56.9914 56.5356Z" fill="#28458E"/>
<path fill-rule="evenodd" clip-rule="evenodd" d="M28.5991 8.42969C17.9894 8.42969 5.54883 16.0868 5.54883 23.0862C5.54883 25.7936 8.02555 28.0809 13.1516 28.0809C25.0512 28.0809 36.1068 19.9054 36.1068 13.5482C36.1068 10.203 32.8941 8.42969 28.5991 8.42969ZM32.8347 13.3506C32.8347 18.7093 22.5445 25.2597 13.9426 25.2597C10.1421 25.2597 8.08871 23.764 8.08871 21.296C8.08871 15.8605 18.4958 9.42138 26.5644 9.42138C31.8249 9.42138 32.8347 12.0982 32.8347 13.3506Z" fill="#0096D6"/>
<path fill-rule="evenodd" clip-rule="evenodd" d="M1.32213 26.3273C1.02387 26.8432 -0.17041 29.1817 -0.17041 31.5778C-0.17041 36.0216 4.31971 40.1472 12.5784 40.1472C28.4661 40.1472 46.8217 28.4526 46.8217 17.5972C46.8217 12.7244 42.209 10.0751 39.0064 9.52734L38.9463 9.71743C39.9424 10.0326 43.5915 11.7289 43.5915 16.0696C43.5915 24.7191 27.385 36.5043 11.2415 36.5043C5.06129 36.5043 1.16768 33.4536 1.16768 29.0097C1.16768 27.6041 1.46031 26.6781 1.53785 26.4098L1.32213 26.3273Z" fill="#EB7B30"/>
<path fill-rule="evenodd" clip-rule="evenodd" d="M53.3721 18.4082C53.8079 18.739 56.4247 20.9199 56.4247 25.0443C56.4247 39.1068 34.3912 52.9348 14.9119 52.9348C3.2955 52.9348 -1.99998 47.1991 -1.7655 42.1062H-1.55728C-1.10208 44.7511 2.66959 49.4839 12.8366 49.4839C32.3403 49.4839 54.1168 35.1756 54.1168 22.6395C54.1168 20.4891 53.5328 19.1492 53.2027 18.5533L53.3721 18.4082Z" fill="#00984A"/>
<path fill-rule="evenodd" clip-rule="evenodd" d="M60.7366 31.5371C60.8279 31.8366 61.3025 33.1828 61.3025 35.2913C61.3025 50.9345 39.0045 64.3267 19.6115 64.3267C9.63019 64.3267 4.41787 59.4783 3.31738 57.5093L3.49496 57.378C6.25681 59.7934 11.6967 61.6286 18.0452 61.6286C35.1728 61.6286 60.7297 48.5978 60.5015 31.594L60.7366 31.5371Z" fill="#DF002C"/>
</g>
<defs>
<clipPath id="clip0_174_189">
<rect width="360.231" height="100" fill="white"/>
</clipPath>
</defs>
</svg>
