<svg width="48" height="48" viewBox="0 0 48 48" fill="none" xmlns="http://www.w3.org/2000/svg">
<path d="M30.9978 5.85938C26.0272 5.85938 21.9978 9.88938 21.9978 14.8594C21.9978 19.8294 26.0272 23.8594 30.9978 23.8594C35.9684 23.8594 39.9978 19.8294 39.9978 14.8594C39.9978 9.88938 35.9684 5.85938 30.9978 5.85938ZM15.9978 7.85938C11.5796 7.85938 7.9978 11.4414 7.9978 15.8594C7.9978 20.2774 11.5796 23.8594 15.9978 23.8594C17.6566 23.8594 19.2278 23.3534 20.5602 22.4214C21.4656 21.7894 21.693 20.5154 21.0602 19.6094C20.4274 18.7034 19.2156 18.5394 18.3102 19.1714C17.6444 19.6374 16.8302 19.8594 15.9978 19.8594C13.7886 19.8594 11.9978 18.0694 11.9978 15.8594C11.9978 13.6494 13.7886 11.8594 15.9978 11.8594C16.6502 11.8594 17.247 12.0034 17.8102 12.2974C18.7902 12.8074 20.0506 12.4634 20.5602 11.4834C21.07 10.5054 20.6652 9.24335 19.6854 8.73535C18.5552 8.14735 17.2966 7.85938 15.9978 7.85938ZM30.9978 9.85938C33.7592 9.85938 35.9978 12.0974 35.9978 14.8594C35.9978 17.6214 33.7592 19.8594 30.9978 19.8594C28.2364 19.8594 25.9978 17.6214 25.9978 14.8594C25.9978 12.0974 28.2364 9.85938 30.9978 9.85938ZM10.1228 26.5474C6.4546 28.0614 3.9978 31.7714 3.9978 35.8594V39.8594C3.9978 40.9634 4.8932 41.8594 5.9978 41.8594H13.9978C15.1024 41.8594 15.9978 40.9634 15.9978 39.8594C15.9978 38.7554 15.1024 37.8594 13.9978 37.8594H7.9978V35.8594C7.9978 33.6114 9.3312 31.5474 10.8638 30.6394C12.3052 31.2474 13.83 31.7074 15.186 31.8214C16.2868 31.9154 17.2794 31.0854 17.3728 29.9834C17.4662 28.8834 16.6708 27.9514 15.5702 27.8574C14.6922 27.7834 13.7326 27.5194 12.6228 27.0474C12.3548 26.9334 12.1992 26.8434 11.6854 26.6094C11.1816 26.3794 10.6344 26.3354 10.1228 26.5474ZM24.1228 26.5474C20.4546 28.0614 17.9978 31.7714 17.9978 35.8594V39.8594C17.9978 40.9634 18.8932 41.8594 19.9978 41.8594H41.9978C43.1024 41.8594 43.9978 40.9634 43.9978 39.8594V35.8594C43.9978 31.8674 41.5274 28.2474 37.8728 26.6714C37.3584 26.4494 36.759 26.4434 36.2478 26.6714C34.4782 27.4654 32.7542 27.8594 30.9978 27.8594C29.2474 27.8594 27.5174 27.4434 25.6854 26.6094C25.1816 26.3794 24.6344 26.3354 24.1228 26.5474ZM24.8918 30.6394C26.7814 31.3554 29.0596 31.8594 30.9978 31.8594C32.9208 31.8594 35.1048 31.3893 36.9562 30.7053C38.7614 31.7333 39.9978 33.6574 39.9978 35.8594V37.8594H21.9978V35.8594C21.9978 33.5294 23.3096 31.5654 24.8918 30.6394Z" fill="#EC7A24"/>
</svg>
