<svg width="41" height="39" viewBox="0 0 41 39" fill="none" xmlns="http://www.w3.org/2000/svg">
<path d="M8.99806 0.981445C8.90006 0.981445 8.45607 1.05545 8.31007 1.10745C7.79007 1.28945 7.39805 1.64145 7.18605 2.10745L1.36806 13.7714C1.36806 13.7714 1.01207 14.2534 0.99807 14.9874C0.98407 15.7214 1.52407 16.3074 1.52407 16.3074L19.436 38.2474C20.236 39.2254 21.7601 39.2254 22.5601 38.2474C23.118 37.5654 40.542 16.2095 40.542 16.2095C40.542 16.2095 40.986 15.6454 40.998 14.9874C41.012 14.3294 40.662 13.8635 40.662 13.8635L34.81 2.10745C34.598 1.64145 34.206 1.28945 33.686 1.10745C33.54 1.05545 33.098 0.981445 32.998 0.981445H8.99806ZM11.8101 4.98346H30.186L27.374 12.9874H14.624L11.8101 4.98346ZM8.68605 8.10944L10.436 12.9874H6.24806L8.68605 8.10944ZM33.31 8.10944L35.748 12.9874H31.56L33.31 8.10944ZM7.24806 16.9874H11.8101L15.3101 26.8674L7.24806 16.9874ZM16.0601 16.9874H25.936L20.998 30.9954L16.0601 16.9874ZM30.186 16.9874H34.748C32.832 19.3294 30.052 22.7594 26.686 26.8674L30.186 16.9874Z" fill="#EC7A24"/>
</svg>
