<svg width="39" height="39" viewBox="0 0 39 39" fill="none" xmlns="http://www.w3.org/2000/svg">
<path d="M34.0462 29.954C33.1095 29.0567 32.1979 28.1337 31.3122 27.186C30.5682 26.43 30.1202 25.88 30.1202 25.88L24.5202 23.206C26.7622 20.6633 27.9996 17.39 28.0002 14C28.0002 6.282 21.7202 0 14.0002 0C6.28024 0 0.000244141 6.282 0.000244141 14C0.000244141 21.718 6.28024 28 14.0002 28C17.5262 28 20.7402 26.68 23.2062 24.522L25.8802 30.122C25.8802 30.122 26.4302 30.57 27.1862 31.314C27.9602 32.04 28.9782 33.022 29.9542 34.048L32.6702 36.832L33.8782 38.124L38.1202 33.882L36.8282 32.674C36.0702 31.93 35.0582 30.942 34.0462 29.954V29.954ZM14.0002 24C8.48624 24 4.00024 19.514 4.00024 14C4.00024 8.486 8.48624 4 14.0002 4C19.5142 4 24.0002 8.486 24.0002 14C24.0002 19.514 19.5142 24 14.0002 24Z" fill="#EC7A24"/>
</svg>
